/* XPM */
static char *_db6c62f479d4360be7c645eaef63a69LfZg8jdnurQKge9s[] = {
/* columns rows colors chars-per-pixel */
"15 15 47 1 ",
"  c #000084",
". c #000088",
"X c #00278E",
"o c #00298E",
"O c #002B8F",
"+ c #002D90",
"@ c #003492",
"# c #003592",
"$ c #0D3C94",
"% c #133A93",
"& c #123E95",
"* c #143E95",
"= c #1E4397",
"- c #204497",
"; c #214497",
": c #234598",
"> c #264798",
", c #2B4A99",
"< c #314E9B",
"1 c #6573AB",
"2 c #6A77AE",
"3 c #6C79AE",
"4 c #7882B3",
"5 c #7A85B4",
"6 c #7D88B5",
"7 c #838CB8",
"8 c #868EB9",
"9 c #8791BA",
"0 c #8C95BC",
"q c #9DA3C4",
"w c #A2A7C7",
"e c #A6ACCA",
"r c #AAB0CC",
"t c #AEB3CE",
"y c #B3B8D2",
"u c #B4BAD2",
"i c #B9BFD5",
"p c #C6C9DC",
"a c #CBCDDE",
"s c #CCCEDF",
"d c #D2D4E2",
"f c #ECEEF3",
"g c #F8F8F9",
"h c #FBFBFB",
"j c #FBFBFC",
"k c gray99",
"l c white",
/* pixels */
"lllllllllllllll",
"llhlhhlhlhhhlhl",
"lhhhhhlawlhhhhl",
"lhhhhhla ylhhhl",
"llllllldo+ilhjl",
"lle47703&:oplhl",
"ll2 @oX@;:-#plj",
"ll5$<<<,=;:&%fl",
"ll1 @oo#;;:oill",
"hlr69771*,Xulhl",
"lhllllls+otlhhl",
"llhhhglp tljhhl",
"lhhhjhlpqlhhhhl",
"llhhjhlhllhhhll",
"lllllllllllllll"
};
