/* XPM */
static char *_009c48aec854d3cf0a3156f73de9f9apxFEqTZzgo5ljFWK[] = {
/* columns rows colors chars-per-pixel */
"15 15 8 1 ",
"  c #979797",
". c #989898",
"X c #989999",
"o c #9B9B9B",
"O c #9B9C9B",
"+ c #9D9D9D",
"@ c gray62",
"# c #A0A1A0",
/* pixels */
"#ooooooooooO+O+",
"o   o     .. oo",
"o o  oooooooooo",
"oo oo         o",
"oo  o  oX oX oo",
"o oo        o o",
"o o o o  oo   o",
"o o  o    o  oo",
"o.o.........  o",
"o.o.o.......ooo",
"O.......X...  o",
"O .o.o..X.o. oo",
"+oo.o..oo..o..o",
"o ... ........O",
"+oooooooOOoooo+"
};
