/* XPM */
static char *f862d9e878e644dd9a0a913a8254fac24twNKeYOMp3GZIjy[] = {
/* columns rows colors chars-per-pixel */
"15 15 52 1 ",
"  c #000084",
". c #000088",
"X c #00278E",
"o c #00298E",
"O c #002B8F",
"+ c #002D90",
"@ c #002F91",
"# c #003091",
"$ c #003592",
"% c #0D3C94",
"& c #133A93",
"* c #123E95",
"= c #143E95",
"- c #1E4397",
"; c #204497",
": c #234598",
"> c #244698",
", c #264798",
"< c #284899",
"1 c #304D9A",
"2 c #314E9B",
"3 c #36519C",
"4 c #6573AB",
"5 c #6875AC",
"6 c #6C79AE",
"7 c #7882B3",
"8 c #7B85B4",
"9 c #7D88B5",
"0 c #838CB8",
"q c #868EB9",
"w c #8791BA",
"e c #8C95BC",
"r c #9DA3C4",
"t c #A2A7C7",
"y c #A6ACCA",
"u c #AAB0CC",
"i c #AEB3CE",
"p c #B3B8D2",
"a c #B4BAD2",
"s c #B8BDD4",
"d c #B9BFD5",
"f c #BFC4D8",
"g c #C6C9DC",
"h c #CBCDDE",
"j c #D2D4E2",
"k c #ECEEF3",
"l c #F8F8F9",
"z c #FBFBFB",
"x c #FBFBFC",
"c c #FCFCFC",
"v c #FDFCFC",
"b c #FFFFFF",
/* pixels */
"bbbbbbbbbbbbbbb",
"bbzzzzbkbbzzzbb",
"bzbzzbg&sbzzzbb",
"bzzzbf#*Xpbzzzb",
"bbzbsO;<,Xibzzb",
"bzbaO,;-,<Oibzb",
"bbt @=;;;=@ rbx",
"bzhhj6$<$4hggzb",
"bzbbbeX1@qbbbbb",
"bzzlbqO1X0blzxb",
"bzzzbq@3@wbzzzb",
"bzzzb7 % 9bzzbb",
"bzzzby585ubzzbb",
"bbzzcbbbbbzzzzb",
"bbbbbbbbbbbbbbb"
};
