/* XPM */
static char *ab3356472cf54853c6659725bdf78fceH9GKZTCgvYmIThb4[] = {
/* columns rows colors chars-per-pixel */
"15 15 53 1 ",
"  c #000084",
". c #000088",
"X c #00248E",
"o c #00298E",
"O c #002B8F",
"+ c #002D90",
"@ c #002F90",
"# c #003191",
"$ c #003592",
"% c #0D3C94",
"& c #133A93",
"* c #123E95",
"= c #143E95",
"- c #1E4397",
"; c #214497",
": c #234598",
"> c #244698",
", c #264798",
"< c #284999",
"1 c #304D9B",
"2 c #36519C",
"3 c #6573AB",
"4 c #6875AC",
"5 c #6A77AE",
"6 c #6C79AE",
"7 c #7882B3",
"8 c #7A85B4",
"9 c #7D88B5",
"0 c #838CB8",
"q c #848DB9",
"w c #8791BA",
"e c #8C95BC",
"r c #9DA3C4",
"t c #A2A7C7",
"y c #A6ACCA",
"u c #AAB0CC",
"i c #AEB3CE",
"p c #B3B8D2",
"a c #B4BAD2",
"s c #B8BDD4",
"d c #B9BFD5",
"f c #BFC4D8",
"g c #C6C9DC",
"h c #C7CADD",
"j c #CBCDDE",
"k c #CED0E0",
"l c #D2D4E2",
"z c #ECEEF3",
"x c #F8F8F9",
"c c #FBFBFB",
"v c #FBFBFC",
"b c gray99",
"n c white",
/* pixels */
"nnnnnnnnnnnnnnn",
"nncccvnccccccnn",
"ncnccnrgncnvcnn",
"ncccni gncccccn",
"nncnio@knnnnncn",
"ncnaX<=3q0w9unc",
"nndo>;;$Oo# 4nn",
"nz&*<-;<112%8nn",
"cng#>:-$oo#.4nn",
"ncnfo>*6eqq7ynn",
"nccndoolnnnnnnn",
"ncccnp jncccccn",
"ncnccntjncccccn",
"nnccccnccccncnn",
"nnnnnnnnnnnnnnn"
};
