/* XPM */
static char *_c092fc13cdf40d2ec6e53763fa138fe2WLXC4dqbypHmGyL[] = {
/* columns rows colors chars-per-pixel */
"15 15 49 1 ",
"  c #000084",
". c #00248E",
"X c #002B8F",
"o c #002F90",
"O c #003091",
"+ c #003492",
"@ c #0D3C94",
"# c #133A93",
"$ c #123E95",
"% c #143E95",
"& c #1E4397",
"* c #204497",
"= c #214497",
"- c #244698",
"; c #264798",
": c #284999",
"> c #2B4A99",
", c #304D9A",
"< c #36519C",
"1 c #6573AB",
"2 c #6A77AE",
"3 c #6C79AE",
"4 c #7882B3",
"5 c #7B85B4",
"6 c #7D88B5",
"7 c #838CB8",
"8 c #868FBA",
"9 c #8791BA",
"0 c #8C95BC",
"q c #9DA3C4",
"w c #A2A7C7",
"e c #A6ACCA",
"r c #AAB0CC",
"t c #AEB3CE",
"y c #B3B8D2",
"u c #B8BDD4",
"i c #BFC4D8",
"p c #C7CBDC",
"a c #C7CADD",
"s c #CBCDDE",
"d c #CCCEDF",
"f c #CED0E0",
"g c #D2D4E2",
"h c #ECEEF3",
"j c #F8F8FA",
"k c #FBFBFB",
"l c #FBFBFC",
"z c gray99",
"x c white",
/* pixels */
"xxxxxxxxxxxxxxx",
"xxkxkxxxxxkkkxx",
"xkkkxr152exkkkx",
"xklkx6 @ 4xkkkx",
"xkkkx9O<o8xklkx",
"xkkkx7X,X8xkkkx",
"xlxxx8X,X0xxxkx",
"xkaaf1+>O3gsdkx",
"xxq X%=&=$o wxx",
"xkxtX>=&;;oyxlx",
"xkkxt.;;=Xuxkkx",
"xkkkxyX$oixkkkx",
"xlxkkxu#axkkllx",
"xxkkkkxhxkkkkxx",
"xxxxxxxxxxxxxxx"
};
