/* XPM */
static char *_0fbd64268864209c0bf76332897a843znkodjH6NH32Ox6U[] = {
/* columns rows colors chars-per-pixel */
"15 15 31 1 ",
"  c #8EA2B8",
". c #8FA2B9",
"X c #91A3B8",
"o c #92A4B9",
"O c #92A5BA",
"+ c #93A6BB",
"@ c #90A5BD",
"# c #94A6BC",
"$ c #95A7BC",
"% c #97A9BF",
"& c #98AABF",
"* c #97AAC0",
"= c #98AAC0",
"- c #98ABC3",
"; c #99ACC3",
": c #9CAEC3",
"> c #9AAEC5",
", c #9BAFC7",
"< c #9DAFC6",
"1 c #9EB0C6",
"2 c #9FB1C8",
"3 c #A1B3CA",
"4 c #A3B5CB",
"5 c #A3B6CD",
"6 c #A4B5CC",
"7 c #A5B7CE",
"8 c #D6D9DD",
"9 c #D7DBDF",
"0 c #D8DBDF",
"q c #E9EAEA",
"w c #E9EAEB",
/* pixels */
"q8888880000808q",
"8@>.>>>>@$-><@8",
"0>5%3535-<663>0",
"8.&O%$O=O$%X&.8",
"8>636<*6363=5>0",
"8%1:1*$2<<<X<$0",
"0O>O=>*>$@>=>X8",
"917=6666>3663<0",
"8.*O&&%&O@&%>.8",
"9*321<%<22<$2-9",
"0=334>$5233&3=9",
"9.*X=&@=X$&O*.8",
"0>6=6556<<66619",
"8@>.>>->@#>&,X8",
"w8008000000099w"
};
